<?xml version="1.0" encoding="utf-8"?>
<!-- Generator: Adobe Illustrator 23.0.3, SVG Export Plug-In . SVG Version: 6.00 Build 0)  -->
<svg version="1.1" id="Layer_1" xmlns="http://www.w3.org/2000/svg" xmlns:xlink="http://www.w3.org/1999/xlink" x="0px" y="0px"
	 viewBox="0 0 100 100" style="enable-background:new 0 0 100 100;" xml:space="preserve">
<g>
	<path d="M9.2,90.6h81.5c1.4,0,2.5-1.1,2.5-2.5v-66c0-1.4-1.1-2.5-2.5-2.5h-7.6v-7.6c0-1.4-1.1-2.5-2.5-2.5H70.5
		c-1.4,0-2.5,1.1-2.5,2.5v7.6H57.6v-7.6c0-1.4-1.1-2.5-2.5-2.5H44.9c-1.4,0-2.5,1.1-2.5,2.5v7.6H32.1v-7.6c0-1.4-1.1-2.5-2.5-2.5
		H19.4c-1.4,0-2.5,1.1-2.5,2.5v7.6H9.2c-1.4,0-2.5,1.1-2.5,2.5v66C6.7,89.5,7.8,90.6,9.2,90.6L9.2,90.6z M73,14.5h5.1v7.6
		c0,1.4-1.1,2.5-2.5,2.5c-1.4,0-2.5-1.1-2.5-2.5V14.5z M47.5,14.5h5.1v7.6c0,1.4-1.1,2.5-2.5,2.5c-1.4,0-2.5-1.1-2.5-2.5V14.5z
		 M21.9,14.5H27v7.6c0,1.4-1.1,2.5-2.5,2.5c-1.4,0-2.5-1.1-2.5-2.5V14.5z M11.8,24.6h5.5c1,3,3.9,5.1,7.2,5.1s6.1-2.1,7.2-5.1h11.2
		c1,3,3.9,5.1,7.2,5.1c3.3,0,6.1-2.1,7.2-5.1h11.2c1,3,3.9,5.1,7.2,5.1c3.3,0,6.1-2.1,7.2-5.1h5.5v60.9H11.8V24.6z M11.8,24.6"/>
	<g>
		<path d="M28.2,47.2h-2.4c-2.8,0-5.1-2.3-5.1-5.1v0c0-2.8,2.3-5.1,5.1-5.1h2.4c2.8,0,5.1,2.3,5.1,5.1v0
			C33.3,44.9,31,47.2,28.2,47.2z"/>
		<path d="M51.2,47.2h-2.4c-2.8,0-5.1-2.3-5.1-5.1v0c0-2.8,2.3-5.1,5.1-5.1h2.4c2.8,0,5.1,2.3,5.1,5.1v0
			C56.3,44.9,54,47.2,51.2,47.2z"/>
		<path d="M74.2,47.2h-2.4c-2.8,0-5.1-2.3-5.1-5.1v0c0-2.8,2.3-5.1,5.1-5.1h2.4c2.8,0,5.1,2.3,5.1,5.1v0
			C79.3,44.9,77,47.2,74.2,47.2z"/>
		<path d="M28.2,63.1h-2.4c-2.8,0-5.1-2.3-5.1-5.1v0c0-2.8,2.3-5.1,5.1-5.1h2.4c2.8,0,5.1,2.3,5.1,5.1v0
			C33.3,60.8,31,63.1,28.2,63.1z"/>
		<path d="M51.2,63.1h-2.4c-2.8,0-5.1-2.3-5.1-5.1v0c0-2.8,2.3-5.1,5.1-5.1h2.4c2.8,0,5.1,2.3,5.1,5.1v0
			C56.3,60.8,54,63.1,51.2,63.1z"/>
		<path d="M74.2,63.1h-2.4c-2.8,0-5.1-2.3-5.1-5.1v0c0-2.8,2.3-5.1,5.1-5.1h2.4c2.8,0,5.1,2.3,5.1,5.1v0
			C79.3,60.8,77,63.1,74.2,63.1z"/>
		<path d="M28.2,79h-2.4c-2.8,0-5.1-2.3-5.1-5.1v0c0-2.8,2.3-5.1,5.1-5.1h2.4c2.8,0,5.1,2.3,5.1,5.1v0C33.3,76.7,31,79,28.2,79z"/>
		<path d="M51.2,79h-2.4c-2.8,0-5.1-2.3-5.1-5.1v0c0-2.8,2.3-5.1,5.1-5.1h2.4c2.8,0,5.1,2.3,5.1,5.1v0C56.3,76.7,54,79,51.2,79z"/>
		<path d="M74.2,79h-2.4c-2.8,0-5.1-2.3-5.1-5.1v0c0-2.8,2.3-5.1,5.1-5.1h2.4c2.8,0,5.1,2.3,5.1,5.1v0C79.3,76.7,77,79,74.2,79z"/>
	</g>
</g>
</svg>
