<?xml version="1.0" encoding="utf-8"?>
<!-- Generator: Adobe Illustrator 23.0.3, SVG Export Plug-In . SVG Version: 6.00 Build 0)  -->
<svg version="1.1" id="Layer_1" xmlns="http://www.w3.org/2000/svg" xmlns:xlink="http://www.w3.org/1999/xlink" x="0px" y="0px"
	 viewBox="0 0 100 100" style="enable-background:new 0 0 100 100;" xml:space="preserve">
<g>
	<path d="M50,4.9c-19.2,0-34.8,15.6-34.8,34.8c0,13.7,5.7,27.6,16.6,40.1c8.1,9.4,16.1,14.7,16.5,14.9c0.5,0.3,1.1,0.5,1.7,0.5
		c0.6,0,1.2-0.2,1.7-0.5c0.3-0.2,8.4-5.5,16.5-14.9c10.9-12.5,16.6-26.4,16.6-40.1C84.8,20.5,69.2,4.9,50,4.9L50,4.9z M50,88.2
		c-6.4-4.8-28.6-23.1-28.6-48.5c0-15.7,12.8-28.6,28.6-28.6c15.7,0,28.6,12.8,28.6,28.6C78.6,65.1,56.4,83.4,50,88.2L50,88.2z
		 M50,88.2"/>
	<path d="M50,25.8c-7.6,0-13.8,6.2-13.8,13.8c0,7.6,6.2,13.8,13.8,13.8c7.6,0,13.8-6.2,13.8-13.8C63.8,32,57.6,25.8,50,25.8L50,25.8
		z M50,47.2c-4.2,0-7.6-3.4-7.6-7.6c0-4.2,3.4-7.6,7.6-7.6c4.2,0,7.6,3.4,7.6,7.6C57.6,43.8,54.2,47.2,50,47.2L50,47.2z M50,47.2"/>
</g>
</svg>
