<?xml version="1.0" encoding="utf-8"?>
<!-- Generator: Adobe Illustrator 23.0.3, SVG Export Plug-In . SVG Version: 6.00 Build 0)  -->
<svg version="1.1" id="Layer_1" xmlns="http://www.w3.org/2000/svg" xmlns:xlink="http://www.w3.org/1999/xlink" x="0px" y="0px"
	 viewBox="0 0 100 100" style="enable-background:new 0 0 100 100;" xml:space="preserve">
<style type="text/css">
	.st0{fill:#44A2DA;}
	.st1{fill:#FFFFFF;}
	.st2{fill:#606161;}
	.st3{fill:none;stroke:url(#SVGID_1_);stroke-miterlimit:10;}
	.st4{fill:none;stroke:url(#SVGID_2_);stroke-width:3;stroke-miterlimit:10;}
</style>
<rect x="-3.5" y="-1.7" class="st0" width="106.9" height="103.5"/>
<path class="st1" d="M62.3,50.8c-2.1-5-3.4-9.9-4.3-15.3c-0.1-0.8-0.8-1.3-1.6-1.3h-13c-0.7,0-1.4,0.5-1.6,1.2
	c-1.6,6.3-2.2,12.5-5.9,18c0,0.1-0.1,0.1-0.1,0.2c-0.2,0.2-0.4,0.5-0.6,0.8c-0.5,0.7-0.3,1.7,0.6,2c5.2,2,11.4,8.8,13.5,18.6v-16
	c0-1.1-0.6-2-1.5-2.6c-1.3-0.8-2.2-2.2-2.2-3.8c0-2.4,1.9-4.4,4.3-4.4c2.5-0.1,4.6,1.9,4.6,4.4c0,1.6-0.9,3.1-2.2,3.8
	c-0.9,0.5-1.5,1.5-1.5,2.5v16.5c2.2-9.7,9-16.6,13.7-18.8c0.8-0.4,1-1.5,0.3-2.2C63.7,53.4,62.8,52.1,62.3,50.8z"/>
<path class="st1" d="M55,32.6H45c-1.7,0-3.1-1.4-3.1-3.1v0c0-1.7,1.4-3.1,3.1-3.1H55c1.7,0,3.1,1.4,3.1,3.1v0
	C58.1,31.3,56.7,32.6,55,32.6z"/>
<path class="st2" d="M55,25H45c-1.7,0-3.1-1.4-3.1-3.1v0c0-1.7,1.4-3.1,3.1-3.1H55c1.7,0,3.1,1.4,3.1,3.1v0C58.1,23.6,56.7,25,55,25
	z"/>
<linearGradient id="SVGID_1_" gradientUnits="userSpaceOnUse" x1="22.9924" y1="78.8304" x2="77.0076" y2="78.8304">
	<stop  offset="0" style="stop-color:#FAEF59"/>
	<stop  offset="5.103343e-02" style="stop-color:#F1EC62"/>
	<stop  offset="0.1365" style="stop-color:#D8E378"/>
	<stop  offset="0.2458" style="stop-color:#ADD691"/>
	<stop  offset="0.3747" style="stop-color:#68C5AF"/>
	<stop  offset="0.5188" style="stop-color:#00B3D0"/>
	<stop  offset="1" style="stop-color:#3751A3"/>
</linearGradient>
<line class="st3" x1="23" y1="78.8" x2="77" y2="78.8"/>
<g>
	<circle class="st1" cx="22.8" cy="78.8" r="2.1"/>
	<path class="st1" d="M77.2,76.7c-1.2,0-2.1,0.9-2.1,2.1c0,1.2,0.9,2.1,2.1,2.1c1.2,0,2.1-0.9,2.1-2.1
		C79.3,77.7,78.3,76.7,77.2,76.7z"/>
</g>
<linearGradient id="SVGID_2_" gradientUnits="userSpaceOnUse" x1="23.4187" y1="67.0397" x2="76.5813" y2="67.0397">
	<stop  offset="0" style="stop-color:#FAEF59"/>
	<stop  offset="5.103343e-02" style="stop-color:#F1EC62"/>
	<stop  offset="0.1365" style="stop-color:#D8E378"/>
	<stop  offset="0.2458" style="stop-color:#ADD691"/>
	<stop  offset="0.3747" style="stop-color:#68C5AF"/>
	<stop  offset="0.5188" style="stop-color:#00B3D0"/>
	<stop  offset="1" style="stop-color:#3751A3"/>
</linearGradient>
<path class="st4" d="M75.1,53.7c0,13.9-11.2,25.1-25.1,25.1c-13.9,0-25.1-11.2-25.1-25.1"/>
<g>
	<path class="st1" d="M75.4,55.8H75c-1,0-1.9-0.8-1.9-1.9v0c0-1,0.8-1.9,1.9-1.9h0.4c1,0,1.9,0.8,1.9,1.9v0
		C77.3,55,76.4,55.8,75.4,55.8z"/>
	<path class="st1" d="M25,55.8h-0.4c-1,0-1.9-0.8-1.9-1.9v0c0-1,0.8-1.9,1.9-1.9H25c1,0,1.9,0.8,1.9,1.9v0
		C26.9,55,26.1,55.8,25,55.8z"/>
</g>
<path class="st1" d="M50.2,81.1h-0.4c-1,0-1.9-0.8-1.9-1.9v0c0-1,0.8-1.9,1.9-1.9h0.4c1,0,1.9,0.8,1.9,1.9v0
	C52.1,80.3,51.2,81.1,50.2,81.1z"/>
</svg>
