<?xml version="1.0" encoding="utf-8"?>
<!-- Generator: Adobe Illustrator 23.0.3, SVG Export Plug-In . SVG Version: 6.00 Build 0)  -->
<svg version="1.1" id="Layer_1" xmlns="http://www.w3.org/2000/svg" xmlns:xlink="http://www.w3.org/1999/xlink" x="0px" y="0px"
	 viewBox="0 0 100 100" style="enable-background:new 0 0 100 100;" xml:space="preserve">
<g>
	<path d="M80.8,30.2L50,57.4L19.2,30.2c-1.2-1.1-3.1-1-4.2,0.3c-1.1,1.2-1,3.1,0.3,4.2L48,63.5c0.6,0.5,1.3,0.7,2,0.7
		c0.7,0,1.4-0.2,2-0.7l32.8-28.9c1.2-1.1,1.3-2.9,0.3-4.2C83.9,29.3,82,29.1,80.8,30.2L80.8,30.2z M80.8,30.2"/>
	<path d="M88.7,17.6H11.3c-4.9,0-8.9,4-8.9,8.9v47c0,4.9,4,8.9,8.9,8.9h77.4c4.9,0,8.9-4,8.9-8.9v-47C97.6,21.6,93.6,17.6,88.7,17.6
		L88.7,17.6z M91.6,73.5c0,1.6-1.3,3-3,3H11.3c-1.6,0-3-1.3-3-3v-47c0-1.6,1.3-3,3-3h77.4c1.6,0,3,1.3,3,3V73.5z M91.6,73.5"/>
</g>
</svg>
