<?xml version="1.0" encoding="utf-8"?>
<!-- Generator: Adobe Illustrator 23.0.3, SVG Export Plug-In . SVG Version: 6.00 Build 0)  -->
<svg version="1.1" id="Layer_1" xmlns="http://www.w3.org/2000/svg" xmlns:xlink="http://www.w3.org/1999/xlink" x="0px" y="0px"
	 viewBox="0 0 100 100" style="enable-background:new 0 0 100 100;" xml:space="preserve">
<g>
	<path d="M79,19.8C72.1,12.9,62.9,9.1,53.2,9.1c-1.6,0-2.9,1.3-2.9,2.9c0,1.6,1.3,2.9,2.9,2.9c8.2,0,15.9,3.2,21.8,9
		c5.8,5.8,9,13.5,9,21.8c0,1.6,1.3,2.9,2.9,2.9c1.6,0,2.9-1.3,2.9-2.9C89.7,35.9,85.9,26.7,79,19.8L79,19.8z M79,19.8"/>
	<g>
		<path d="M67.1,45.7c0,1.6,1.3,2.9,2.9,2.9c1.6,0,2.9-1.3,2.9-2.9c0-10.9-8.9-19.7-19.7-19.7c-1.6,0-2.9,1.3-2.9,2.9
			c0,1.6,1.3,2.9,2.9,2.9C60.9,31.8,67.1,38,67.1,45.7L67.1,45.7z M67.1,45.7"/>
		<path d="M60.7,60.5c-4.4-0.2-6.7,3.1-7.7,4.6c-0.9,1.3-0.6,3.1,0.8,4c1.3,0.9,3.1,0.6,4-0.8c1.3-1.9,1.9-2.2,2.6-2.1
			c2.5,0.3,12.4,7.5,13.4,9.8c0.2,0.7,0.2,1.3,0,2.1c-1,3.1-2.8,5.2-5,6.3c-2.1,1-4.7,0.9-7.4-0.3C51,79.9,41.9,74.1,34.4,66.7
			c0,0,0,0,0,0C27.1,59.2,21.2,50.2,17,39.8c-1.1-2.8-1.2-5.3-0.3-7.4c1-2.2,3.2-3.9,6.3-5c0.8-0.3,1.4-0.3,2.1,0
			c2.3,1,9.5,10.9,9.8,13.3c0,0.8-0.3,1.4-2.1,2.7c-1.3,0.9-1.7,2.7-0.8,4c0.9,1.3,2.7,1.7,4,0.8c1.6-1.1,4.9-3.3,4.6-7.8
			c-0.3-4.6-9.3-16.9-13.6-18.5c-1.9-0.7-3.9-0.7-6,0c-4.6,1.6-8,4.3-9.7,8c-1.6,3.6-1.6,7.8,0.2,12c4.5,11.1,10.8,20.7,18.7,28.7
			c0,0,0,0,0.1,0.1c8,7.9,17.7,14.2,28.7,18.7c2.2,0.9,4.4,1.3,6.5,1.3c2,0,3.8-0.4,5.6-1.2c3.7-1.7,6.5-5,8-9.7
			c0.7-2.1,0.7-4.1,0-6C77.6,69.7,65.3,60.7,60.7,60.5L60.7,60.5z M60.7,60.5"/>
	</g>
</g>
</svg>
